<?xml version="1.0" encoding="utf-8"?>
<!-- Generator: Adobe Illustrator 25.2.1, SVG Export Plug-In . SVG Version: 6.00 Build 0)  -->
<svg version="1.1" xmlns="http://www.w3.org/2000/svg" xmlns:xlink="http://www.w3.org/1999/xlink" x="0px" y="0px"
	 viewBox="0 0 1366 768" style="enable-background:new 0 0 1366 768;" xml:space="preserve">
<style type="text/css">
	.st0{fill:#2C7EB9;}
	.st1{fill:#F34168;}
	.st2{fill:#7159B1;}
	.st3{fill:#DF3463;}
	.st4{fill:#A71054;}
	.st5{fill:#40B28D;}
	.st6{fill:#840953;}
	.st7{fill:#C0205C;}
	.st8{fill:#E9AD39;}
	.st9{fill:#68BE82;}
	.st10{fill:#4A3B86;}
	.st11{fill:#DEA3B6;}
	.st12{fill:#5C489A;}
	.st13{fill:none;}
	.st14{fill:none;stroke:#000000;stroke-width:0.5;stroke-miterlimit:10;}
</style>
<g id="Capa_2">
</g>
<g id="Capa_1">
	<g>
		<path class="st0" d="M635.9,565.4c-7.3,0-13.2,9.9-13.2,9.9c0,15.2,7.8,21.2,18.5,19.5c6.6-1.1,7.7-6.6,7.9-13.5
			c0-0.6,0-1.2,0-1.9C649.1,571.7,643.2,565.4,635.9,565.4z"/>
		<path class="st0" d="M707.2,353.3C706.9,354.6,707.2,351.9,707.2,353.3c0-13.3-0.1-26.7-0.1-40.1c-0.1-1-0.2-1.9-0.3-2.9
			c-1.9-6.8-2.1-14.5-9.2-18.9c-13.1-1.3-18.5,8.1-22.8,17.6c-9.6,21.4-18.4,43.3-27.5,65c-0.3,0.6-30.9,59-28,64.9
			c0.1,26.7,2.5,109.8,3.4,136.5c0,0,5.8-9.9,13.2-9.9c7.3,0,13.2,6.3,13.2,14c0,0.6,0,1.2,0,1.9c3.7-4.1,6.5-9.2,8.9-14.4
			c8.2-17.8,14.7-36.3,22.3-54.3c7.6-18,25.8-63.1,25.8-63.1s0,0,0-2.5c0-2.1,0-7.4,0-9.2C706.1,411,707.1,380.1,707.2,353.3z"/>
		<path class="st0" d="M707.2,353.3C707.2,351.9,706.9,354.6,707.2,353.3L707.2,353.3z"/>
	</g>
	<path class="st1" d="M418.7,178.8c-0.2-25.7-1.9-51.4,4.2-76.7c6.6-27.2,27.6-39.8,54.9-33.2c27.7,6.7,51.7,21.3,76.4,34.6
		c12.5,6.8,24.9,13.7,37.4,20.6c20.6,11.2,41.2,22.4,61.7,33.6c7.1,3.9,14.1,8.2,21.1,12.3c0.9,0.5,1.9,1,2.8,1.5
		c1.9,1,10.6,5.4,12.5,6.3c-2,1.4-10.7-0.1-12.9,0.4c-2.1,0.5-55.8,1.3-80.5,1.6c-4.5,0.1-51.7,1.1-59.4,2.2
		c-4.3-0.9-8.6-1.8-12.8-2.8c-9.9-2.2-22.4,3.2-22.4,3.2c-0.5-0.1-5.7-2.2-10.8-2.2c-14.7-0.1-35.7,0.8-44.4,0.5
		C436.9,180.1,427.8,179.4,418.7,178.8z"/>
	<path class="st2" d="M609.8,461.8c-1.4-3.3-7.3,3.9-8.3,0.5c-0.9-3.1-2.6-5.6-2.6-8.9c0-14.3-6.6-0.7-6.6-15c0-2.3,8-8.1,7.6-10.4
		c-2.3,1.3-2.1,13.7-3.2,15.6c-7.4,12.3-13.6,2.9-20.9,15.2c-2.4,4.1-5.8,3.3-8.7,7.2c-0.8-0.3-6.8,0.3-7.6,0
		c-10.8,21.9-8.5-23.4-8.5-25.9c0-25.2,7.3-51.6,7.5-76.9c0-4.7-0.2,4.7,0,0c0.1-1.7,4.9-18.3,4.2-20.1c9.8-22.3,16-48.6,34.2-66.5
		c12.3-12.1,26.2-16.8,43.4-9.2c15.2,6.7,31.1,11.6,46.6,17.5c3.8,1.5,7.2,4.2,10.7,6.3c-13.1-1.3-18.5,8.1-22.8,17.6
		c-9.6,21.4-18.4,43.3-27.5,65c-0.3,0.6-0.1,1.4-0.2,2.1c-1.4,3.3-2.7,6.6-4.2,9.8c-6,13.1-12.2,26-18,39.1
		C623.4,428.4,612.9,455.4,609.8,461.8z"/>
	<path class="st3" d="M689.7,177.9c11.4,6.6,15.9,9.9,27.4,16.2c7.4,4.1,15.4,7.1,22.8,11.2c39,21.2,78,42.5,117,63.8
		c1,0.5,1.8,1.5,2.6,2.2c-6,0.6-11.9,1.8-17.9,1.8c-25.4,0.2-50.8-0.1-76.2,0.3c-4.4,0.1-8.7,2.3-13.1,3.6
		c-12.7-5.4-25.5-10.7-38.1-16.2c-26.3-11.5-52.5-23.2-78.8-34.7c-15.3-6.8-30.6-13.6-45.9-20.3c-2.8-1.2-64-25-69.7-27.8H689.7z"/>
	<path class="st4" d="M496.4,338.1c0.2,11.1,0,127.9,0,127.9l0,0c0,0-13.5,2.1-19.2,2.3c-4.2,0.1-8.5-0.5-12.7-0.7
		c-15.4-0.5-30.1-1.1-45.5-1.6V338.1C419,338.1,477.3,338.1,496.4,338.1z"/>
	<path class="st5" d="M747.2,389.2c0,14.7-0.4,29.9-0.5,44.8c0,1.1,0.1,5.3,1,11.7c16.6-15.1,18.9-32.2,36.5-48.9
		c0.7,4.5,5.7,11.5,5.7,13.9c0.1,9.5-1.1,19.7-0.8,29.2c0.1,3-2,6.8-1.3,9.7c-14.2,28.7-27.9,57.7-42.8,85.9
		c-3.2,6.1-10.5,10.8-16.9,14.4c-25.5,14.2-51.2,28-77.2,41.2c-6.7,3.4-15.8,6.8-23,0.1c4.4-0.6,24.5-12.3,30.2-24.5
		c8.2-17.8,14.7-36.3,22.3-54.3c7.6-18,18.2-45.1,25.8-63.1l0,0c1.2-1.4,5-8.3,6-9.9c1.9-3.2,3.2-6.8,4.8-10.2
		c12,2.8,17.6-2.8,14-16.6c-2.1,2.3-4.6,3.8-4.6,5.2c0.1,5.6-3,6.2-7.2,5.7c4.5-11.1,11.6-26.5,16.1-37.6c0.4-0.2,1-1.8,1-2.3"/>
	<path class="st6" d="M419,466.1h77.5c0.2,11.2,0.5,12.3,0.8,23.5c0,2.1,0,4.6,0,6.6c-0.1,0.3-0.7,38-0.8,38.3
		c-4.5,11.2-1.1,19.7-5.7,30.9c-7.8,18.7-9.3,27-17.1,45.6c-6.2,14.9-9.3,5.9-15.6,20.8c-4.4,10.4-24.7,10.7-37.2,5.3
		c-0.1-0.5-0.2-0.9-0.3-1.3c-0.3-2.8-0.6-5.5-0.9-8.3C418.4,611.9,419,466.1,419,466.1z"/>
	<path class="st7" d="M752.5,276.9c4.4-1.3,8.7-3.5,13.1-3.6c25.4-0.3,50.8-0.1,76.2-0.3c6,0,11.9-1.2,17.9-1.8
		c18.8,10.1,37.6,20.1,56.3,30.2c23.9,13,48,25.9,71.5,39.6c8.2,4.8,15.1,11.9,22.6,17.9c-4.6,0.2-9.3,0.7-13.9,0.6
		c-16.2-0.4-32.5-1-48.7-1.3c-1.9,0-3.7,1.2-5.6,1.8c-24.4-10.6-48.9-21.1-73.3-31.7c-14.4-6.3-28.8-12.7-43.1-19.1
		c-21.7-9.7-43.4-19.4-65.1-29.1c-1-0.4-1.9-0.9-2.9-1.3C755.7,278.2,754.1,277.6,752.5,276.9z"/>
	<path class="st8" d="M921.1,410.2c-27.9,26.3-55.8,52.5-83.8,78.8c-5.6,5.3-11.8,10.8-20.1,8c-9-3.1-11.9-11.7-12.5-20
		c-1.3-17.8-1.3-35.6-1.9-53.4c6-14.8,11.5-29.9,18.1-44.5c3.6-8,8.4-15.7,13.9-22.5c4.8-6,11.9-8.5,19.7-4.7
		c2.2,7.4,5.8,14.7,6.3,22.2c1.1,16.1,0.5,32.4,0.6,48.6c0.1,15.4,2.4,17.2,15.7,9.8c14.7-8.1,28.8-17.1,43.2-25.8
		C920.6,407.9,920.9,409.1,921.1,410.2z"/>
	<path class="st9" d="M854.5,351.9c-7.9-3.8-14.9-1.3-19.7,4.7c-5.5,6.8-10.3,14.5-13.9,22.5c-6.6,14.6-12.2,29.6-18.1,44.5
		c-5,8.7-10,17.4-15,26.2c-0.6-3-1.8-5.9-1.8-8.9c-0.2-9.5,0-19-0.1-28.5c0-2.4-0.7-4.8-1.4-9.4c-17.5,16.7-26.2,37.9-42.8,53.1
		c0,0,2.7-20.5,2.7-21.6c0.1-14.9,0.1-29.8,0.1-44.5c-3.5-1-6.2-1.8-8.9-2.6c-0.1-0.5-0.2-0.9-0.3-1.4c5.4-12.1,10.3-24.4,16.3-36.2
		c6.9-13.6,18.2-22.2,33.6-24.5c3.6-0.6,7.8-0.3,11.2,0.9c16.2,5.8,32.4,11.8,48.4,18.2C848.3,346,851.2,349.4,854.5,351.9z"/>
	<path class="st3" d="M418.7,178.8c9.1,0.6,57.6-1,72.3-0.9c5.1,0,28.9,0,28.9,0c-15.7,2.8-17.6,7.6-19.6,11.2c-1,3.3-2,6.5-3.1,9.8
		l-0.4,7.1c0,1-0.2,51.5-0.2,51.5H419C419.1,231.2,418.6,205,418.7,178.8z"/>
	<path class="st7" d="M496.4,257.4v80.7H419c0,0-0.4-55.5,0-80.7H496.4z"/>
	<path class="st4" d="M941.7,360.1c1.9-0.6,3.7-1.9,5.6-1.8c16.2,0.3,32.5,0.9,48.7,1.3c4.6,0.1,9.3-0.4,13.9-0.6
		c0.5,0,0.7,0.3,0.6,0.7c0.8,1.2,1.6,2.4,2.5,3.5l0.4,0.2c0,0,0,0.5,0,0.5c0.8,6,1.7,11.9,2.5,17.9c-3.7,11.4-13.5,17.4-22.6,22.8
		c-22.8,13.6-46.3,25.9-69.6,38.7c-6.3,3.5-12.8,6.8-19.2,10.1c-0.5-0.5-1-1-1.5-1.5c1-1.5,1.7-3.2,2.9-4.4
		c18.4-17.2,36.9-34.2,55.3-51.4c2.1-1.9,4.1-4,5.8-6.3c6.2-8,4.6-14.4-4.5-19.3c-4.1-2.2-8.2-4.3-12.3-6.5
		c-1.2-0.6-2.4-1.3-3.7-1.9C945,361.4,943.4,360.8,941.7,360.1z"/>
	<path class="st7" d="M1016,381.8c-0.8-6-1.7-11.9-2.5-17.9C1018.2,369.3,1019,375.3,1016,381.8z"/>
	<path class="st7" d="M419.5,623.7c0.3,2.7,0.6,5.4,0.9,8.1C420.1,629.1,419.8,626.4,419.5,623.7z"/>
	<path class="st2" d="M601.5,480.8c0.9-2,1.8-4,2.7-6C603.4,476.8,602.4,478.8,601.5,480.8z"/>
	<path class="st2" d="M599,487c0.6-1.3,1.3-2.5,1.9-3.8C600.2,484.5,599.6,485.8,599,487z"/>
	<path class="st2" d="M559.5,352.5c-0.7,1.2-1.3,2.5-2,3.7C558.2,354.9,558.9,353.7,559.5,352.5z"/>
	<path class="st7" d="M1013.1,363.3c-0.8-1.2-1.6-2.4-2.5-3.5C1011.4,360.9,1012.2,362.1,1013.1,363.3z"/>
	<path class="st7" d="M946.7,362.1c1.2,0.6,2.4,1.3,3.7,1.9C949.1,363.4,947.9,362.7,946.7,362.1z"/>
	<path class="st3" d="M757.3,278.9c1,0.4,1.9,0.9,2.9,1.3C759.2,279.7,758.2,279.3,757.3,278.9z"/>
	<path class="st3" d="M677.2,171.5c-0.9-0.5-1.9-1-2.8-1.5C675.3,170.5,676.3,171,677.2,171.5z"/>
	<path class="st10" d="M511.4,596.6c-1.9-0.7-5.2-1.3-5.3-2.2c-0.5-3.5-1.2-8.4,0.7-10.3c2.2-2.3,7-2.3,10.8-2.9
		c0.6-0.1,2,2.4,2.1,3.8c0.1,0.8-1.6,2.5-2.5,2.5c-5.6,0.1-6.5,2.9-3.8,8.2C512.7,596.1,512.1,596.3,511.4,596.6z"/>
	<path class="st10" d="M531.4,602.2c-0.1,7.1-4,10.1-11.2,8.4c-1.1-0.3-2.9-1.8-2.8-2.2c0.3-1.3,1.5-2.4,2.5-3.4
		c1.7-1.6,3.8-3,5.3-4.8c1.2-1.4,1.7-3.4,2.5-5.1c1.2,1.7,2.5,3.3,3.6,5C531.6,600.6,531.4,601.5,531.4,602.2z"/>
	<path class="st5" d="M716.9,429.3c0.7-1.9,1.4-3.7,2.2-5.6c4.3,0.5,7.3-0.1,7.2-5.7c0-1.5,2.5-3,4.6-5.2
		C734.5,426.5,729,432.2,716.9,429.3z"/>
	<path class="st11" d="M497,200.3c-0.1,1.9-0.2,3.8-0.4,5.7C496.8,204,496.9,202.2,497,200.3z"/>
	<path class="st7" d="M467.3,284.5l6.3,0.6L467.3,284.5z"/>
	<path class="st7" d="M479.2,248.3"/>
	<path class="st7" d="M467.3,293.1"/>
	<path class="st12" d="M557.6,356.2"/>
	<path class="st4" d="M480.6,458.9"/>
	<path class="st12" d="M605.8,451.9c-0.9-3.1-1.2-6.5-1.2-9.8c0-12.6,0.1-25.2,0.2-37.8c0,0,0-0.1,0-0.1c0-5.7,1-16.4-1.9-17
		c-2.9-0.6-4.7,6.1-9.1,14.2c0,0,0,0.1,0,0.1c-6.2,10.7-12.2,21.5-18.4,32.2c-2.4,4.1-5.7,7.7-8.6,11.6c-0.8-0.3-1.6-0.7-2.4-1
		c0-2.5,0-5,0-7.5c0-25.2-0.1-50.5,0.1-75.7c0-0.4,0-0.8,0-1.2l0.1,0c0-5.4,0.9-15.3-1.5-16.8l-6.3,14.8c0,0-16.2,37.7-22.8,53.1
		c-11.2,26.2-22.6,52.4-33.9,78.6c-0.6,1.7-2.4,4.8-3,6.5c7.2,3-8.7,41.5-8.5,47c0.4,11.9,8.6,34.9,8.8,46.8
		c0,0.6,7.3-16.6,8.3-14.6c14.3-13-13.7,23.1,1.2,8.9c0.4,4.2,10.8-5.1,10.8-2.9c0.1,13.1-0.1-13.1,0,0c0,4.5,12.3-19.2,17-15.6
		c0.9,0.7,2.1,0.6,1.2,2.3c-6,12.5-3.8,21.4-4.4,34.2c-0.1,1.6,7.9,18.7,9.8,20.4c5.8-13.2,16.2-36.9,21.9-50.2
		c12.1-28.4,24-56.9,35.9-85.3c0.6-1.3,1.3-2.5,1.9-3.8c0.2-0.8,0.4-1.7,0.7-2.5c0.9-2,1.8-4,2.7-6c1.9-4.3,3.7-8.6,5.6-12.9
		C608.4,458.5,606.7,455.3,605.8,451.9z"/>
	<path class="st10" d="M540.3,607.1c0.6-12.9-0.3-53-0.3-57.5c-0.1-11.8,0-23.7-0.1-35.5c0.1-4.5,0.3-9.8-0.7-12.3c0,0,0,0,0,0
		c0,0,0,0,0,0c-0.3-0.7-0.7-1.2-1.2-1.3c-2.9-0.6-4.7,6.1-9.1,14.2l0,0c-7.6,11.8-12.6,24.6-22.9,34c-1-2.1-1.6-2.7-1.6-3.3
		c-0.2-11.9-0.2-23.8-0.6-35.7c-0.2-5.5,1.7-12-5.5-15l-0.4,0.2c-0.3,0.4-0.6,0.8-0.8,1.1c-4.5,11-8.9,22-13.5,32.9
		c-7.8,18.2-15.7,36.4-23.5,54.6c-6.2,14.6-12.3,29.3-18.6,43.9c-4.4,10.2-8,11.1-20.5,5.8c0.7,4.7,1,9.5,2.4,14
		c3.8,12.4,8.9,24.1,21.4,30.6c9.6,4.9,18.7,7.7,34.5,7c20.9-4.9,38-13.7,49.6-34.4c6.8-12.1,6.9-15,12.5-27.8
		C541.2,622.6,540.2,608.6,540.3,607.1z M513.3,595.8c-0.6,0.3-1.3,0.6-1.9,0.8c-1.9-0.7-5.2-1.3-5.3-2.2c-0.5-3.5-1.2-8.4,0.7-10.3
		c2.2-2.3,7-2.3,10.8-2.9c0.6-0.1,2,2.4,2.1,3.8c0.1,0.8-1.6,2.5-2.5,2.5C511.5,587.6,510.6,590.4,513.3,595.8z M531.4,602.2
		c0,7.1-4,10.1-11.2,8.4c-1.1-0.3-2.9-1.8-2.8-2.2c0.3-1.3,1.5-2.4,2.5-3.4c1.7-1.6,3.8-3,5.3-4.8c1.2-1.4,1.7-3.4,2.5-5.1
		c1.2,1.7,2.5,3.3,3.6,5C531.6,600.6,531.4,601.5,531.4,602.2z"/>
	<path class="st5" d="M733.2,390.6c4.4-8.1,6.2-15.9,9.1-15.3c2.9,0.6,1.9,11.3,1.9,17"/>
	<path class="st10" d="M501.7,486.3c-0.2,0-0.3,0-0.5,0c-0.4,1-0.9,2-1.3,3.1c-0.6,1.7-2.2,4.5-2.9,6.2c0,0.1-0.1,0.2-0.1,0.3
		c7.2,3,6.6,8.2,6.8,13.7C503.7,503.9,504.6,486.9,501.7,486.3z"/>
	<path class="st5" d="M773.2,415.4c5.3-7.9,7.7-14.4,11-13.7c3.3,0.7,1.7,11.4,1.5,17.1"/>
	<line class="st13" x1="729.6" y1="399.2" x2="729.6" y2="399.2"/>
	<path class="st14" d="M704.9,455.5"/>
	<path class="st14" d="M724.5,410.8"/>
</g>
</svg>
