<?xml version="1.0" encoding="utf-8"?>
<!-- Generator: Adobe Illustrator 25.2.1, SVG Export Plug-In . SVG Version: 6.00 Build 0)  -->
<svg version="1.1" xmlns="http://www.w3.org/2000/svg" xmlns:xlink="http://www.w3.org/1999/xlink" x="0px" y="0px"
	 viewBox="0 0 1366 768" style="enable-background:new 0 0 1366 768;" xml:space="preserve">
<style type="text/css">
	.st0{fill:url(#SVGID_1_);}
	.st1{fill:#C0205C;}
	.st2{fill:#7159B1;}
	.st3{fill:url(#SVGID_2_);}
	.st4{fill:#DF3463;}
	.st5{fill:#DEA3B6;}
	.st6{fill:#5C489A;}
	.st7{fill:#4A3B86;}
	.st8{fill:none;stroke:#000000;stroke-width:0.5;stroke-miterlimit:10;}
	.st9{fill:url(#SVGID_3_);}
	.st10{fill:url(#SVGID_4_);}
	.st11{fill:url(#SVGID_5_);}
	.st12{fill:url(#SVGID_6_);}
</style>
<g id="Capa_2">
</g>
<g id="Capa_1">
	<linearGradient id="SVGID_1_" gradientUnits="userSpaceOnUse" x1="834.9958" y1="490.1342" x2="834.9958" y2="353.1681">
		<stop  offset="0" style="stop-color:#CC9933"/>
		<stop  offset="0.1902" style="stop-color:#DFA945"/>
		<stop  offset="0.4346" style="stop-color:#F1B754"/>
		<stop  offset="0.6958" style="stop-color:#FCBF5E"/>
		<stop  offset="1" style="stop-color:#FFC261"/>
	</linearGradient>
	<path class="st0" d="M889.9,408.9c-25.9,24.4-51.8,48.7-77.7,73.1c-5.2,4.9-10.9,10-18.6,7.4c-8.3-2.8-11.1-10.8-11.6-18.5
		c-1.2-16.5-1.2-33-1.8-49.5c5.6-13.8,10.7-27.7,16.8-41.2c3.4-7.4,7.8-14.5,12.9-20.9c4.5-5.6,11-7.9,18.3-4.4
		c2,6.9,5.4,13.6,5.9,20.6c1,15,0.5,30,0.6,45.1c0.1,14.3,2.2,15.9,14.6,9.1c13.6-7.5,26.7-15.9,40.1-23.9
		C889.4,406.8,889.7,407.9,889.9,408.9z"/>
	<path class="st1" d="M478.4,621.1c0.4,3.6,0.8,7.2,1.2,10.7C479.2,628.2,478.8,624.7,478.4,621.1z"/>
	<path class="st2" d="M593.5,474.4c0.8-1.9,1.7-3.7,2.5-5.6C595.2,470.7,594.3,472.5,593.5,474.4z"/>
	<path class="st2" d="M591.1,480.2c0.6-1.2,1.2-2.3,1.8-3.5C592.3,477.9,591.7,479,591.1,480.2z"/>
	<path class="st2" d="M554.5,355.4c-0.6,1.1-1.2,2.3-1.8,3.4C553.3,357.7,553.9,356.5,554.5,355.4z"/>
	<linearGradient id="SVGID_2_" gradientUnits="userSpaceOnUse" x1="701.5359" y1="622.6173" x2="701.5359" y2="90.743">
		<stop  offset="0" style="stop-color:#840953"/>
		<stop  offset="0.25" style="stop-color:#A71054"/>
		<stop  offset="0.5" style="stop-color:#A71054"/>
		<stop  offset="0.75" style="stop-color:#DF3463"/>
		<stop  offset="1" style="stop-color:#F34168"/>
	</linearGradient>
	<path class="st3" d="M975.6,366c0,0-0.4-0.6-0.4-0.6c-0.8-1.1-1.9-2.7-2.3-3.3c0,0-13.9-12.9-21.5-17.3
		c-21.8-12.7-44.1-24.6-66.3-36.7c-17.4-9.5-34.8-18.7-52.2-28.1c-0.8-0.7-1.5-1.6-2.5-2.1c-36.1-19.8-72.3-39.5-108.5-59.1
		c-6.9-3.7-14.3-6.6-21.2-10.4c-10.7-5.9-14.9-8.9-25.4-15c-1.8-0.9-9.8-5-11.6-5.9c-0.9-0.5-1.8-0.9-2.6-1.4
		c-6.5-3.8-13-7.8-19.6-11.4c-19-10.5-38.2-20.8-57.3-31.2c-11.6-6.3-23.1-12.8-34.7-19.1c-22.9-12.3-45.1-25.9-70.8-32.1
		c-25.4-6.1-44.8,5.5-50.9,30.8c-5.7,23.5-4.1,47.4-3.9,71.2c0,0,0,0,0,0c0,0,0,0,0,0c-0.1,24.3,0.4,48.6,0.3,72.9
		c-0.4,23.4,0,74.9,0,74.9v118.7c0,0-0.5,135.2,0.5,149.7c0.3,2.6,0.6,5.1,0.9,7.7c0.1,0.4,0.2,0.8,0.3,1.2
		c11.6,5,30.4,4.8,34.5-4.9c5.9-13.8,8.7-5.4,14.5-19.3c7.2-17.3,8.7-25,15.9-42.3c4.3-10.4,1.1-18.3,5.3-28.7
		c0-0.3,0.6-35.3,0.7-35.6c0-1.9,0-4.2,0-6.2c-0.2-10.4-0.5-11.4-0.7-21.8c0,0,0.2-108.3,0-118.7v-74.9c0,0,0.2-46.9,0.2-47.7
		l0.4-6.6c1-3.1,1.9-6,2.9-9c1.7-2.9,3.3-6.7,13.6-9.4c2.2-0.3,4.5-0.3,6.7,0c11.7,5,60.2,23.8,62.6,24.8
		c14.2,6.2,28.4,12.5,42.6,18.8c24.4,10.8,48.7,21.6,73.1,32.2c11.7,5.1,23.6,10,35.4,15c1.5,0.6,3,1.2,4.5,1.8
		c0.9,0.4,1.8,0.8,2.7,1.2c20.1,9,40.3,18.1,60.4,27c13.3,5.9,26.6,11.9,40,17.7c22.7,9.9,45.4,19.6,68,29.4
		c1.5,0.6,3.1,1.2,4.6,1.8c1.1,0.6,2.3,1.2,3.4,1.8c3.8,2,7.6,4,11.4,6c8.5,4.5,9.9,10.5,4.2,17.9c-1.6,2.1-3.5,4-5.4,5.8
		c-17.1,15.9-34.2,31.7-51.3,47.6c-1.2,1.1-1.8,2.7-2.7,4.1c0.5,0.5,0.9,0.9,1.4,1.4c5.9-3.1,11.9-6.2,17.8-9.4
		c21.6-11.9,43.4-23.3,64.6-35.9c8.5-5,17.5-10.6,21-21.2C980.7,376.6,980,371,975.6,366z"/>
	<path class="st4" d="M737.9,287.1c0.9,0.4,1.8,0.8,2.7,1.2C739.7,287.9,738.8,287.5,737.9,287.1z"/>
	<path class="st4" d="M663.7,187.5c-0.9-0.5-1.8-0.9-2.6-1.4C661.9,186.6,662.8,187.1,663.7,187.5z"/>
	<path class="st5" d="M496.5,214.2c-0.1,1.7-0.2,3.5-0.3,5.2C496.3,217.7,496.4,215.9,496.5,214.2z"/>
	<path class="st1" d="M469,292.4l5.8,0.6L469,292.4z"/>
	<path class="st1" d="M480,258.7"/>
	<path class="st1" d="M469,300.3"/>
	<path class="st6" d="M552.7,358.8"/>
	<path class="st7" d="M500.9,479.5c-0.2,0-0.3,0-0.4,0c-0.4,0.9-0.8,1.9-1.2,2.8c-0.5,1.5-2,4.1-2.7,5.8c0,0.1-0.1,0.2-0.1,0.3
		c6.7,2.8,6.1,7.6,6.3,12.7C502.7,495.8,503.6,480,500.9,479.5z"/>
	<path class="st8" d="M689.4,451"/>
	<g>
		<linearGradient id="SVGID_3_" gradientUnits="userSpaceOnUse" x1="650.6518" y1="580.4407" x2="650.6518" y2="298.6283">
			<stop  offset="0" style="stop-color:#2C7EB9"/>
			<stop  offset="0.3052" style="stop-color:#2F85BF"/>
			<stop  offset="0.7576" style="stop-color:#3799D1"/>
			<stop  offset="1" style="stop-color:#3CA7DD"/>
		</linearGradient>
		<path class="st9" d="M691.5,356.1C691.2,357.3,691.5,354.9,691.5,356.1c0-12.4-0.1-24.8-0.1-37.2c-0.1-0.9-0.2-1.8-0.3-2.7
			c-1.8-6.3-2-13.5-8.5-17.6c-12.2-1.2-17.2,7.6-21.1,16.3c-8.9,19.9-17.1,40.1-25.5,60.3c-0.2,0.6-28.6,54.8-26,60.2
			c0.1,24.7,2.3,101.9,3.1,126.6c0,14.1,7.2,19.7,17.2,18.1c6.1-1,7.2-6.1,7.3-12.5c3.4-3.8,6-8.5,8.3-13.4
			c7.6-16.5,13.7-33.7,20.7-50.4c7.1-16.7,23.9-58.6,23.9-58.6s0,0,0-2.3c0-1.9,0-6.9,0-8.5C690.4,409.6,691.4,381,691.5,356.1z"/>
		<linearGradient id="SVGID_4_" gradientUnits="userSpaceOnUse" x1="691.436" y1="356.4669" x2="691.436" y2="355.7531">
			<stop  offset="0" style="stop-color:#2C7EB9"/>
			<stop  offset="0.3052" style="stop-color:#2F85BF"/>
			<stop  offset="0.7576" style="stop-color:#3799D1"/>
			<stop  offset="1" style="stop-color:#3CA7DD"/>
		</linearGradient>
		<path class="st10" d="M691.5,356.1C691.5,354.9,691.2,357.3,691.5,356.1L691.5,356.1z"/>
	</g>
	<linearGradient id="SVGID_5_" gradientUnits="userSpaceOnUse" x1="708.65" y1="571.0177" x2="742.5385" y2="322.7825">
		<stop  offset="0" style="stop-color:#3B9E7A"/>
		<stop  offset="0.223" style="stop-color:#3DA27B"/>
		<stop  offset="0.4452" style="stop-color:#44AE7E"/>
		<stop  offset="0.6671" style="stop-color:#50C282"/>
		<stop  offset="0.8876" style="stop-color:#60DE89"/>
		<stop  offset="1" style="stop-color:#6AEF8D"/>
	</linearGradient>
	<path class="st11" d="M819,348c-14.8-6-29.8-11.5-44.9-16.9c-3.2-1.1-7-1.4-10.4-0.8c-14.2,2.2-24.7,10.1-31.1,22.7
		c-5.6,10.9-10.1,22.3-15.1,33.6c-0.5,1.2-1,2.5-1.6,3.8c-0.1,0.1-0.1,0.3-0.2,0.4l0,0c-4.1,9.8-9.5,21.7-13.2,30.7c0,0,0,0,0,0
		c-0.7,1.7-1.3,3.5-2,5.2h0c-1.4,3.2-2.6,6.5-4.4,9.4c-0.9,1.5-4.4,7.9-5.6,9.2c-7,16.7-16.9,41.9-23.9,58.6
		c-7.1,16.7-13.1,33.9-20.7,50.4c-5.2,11.3-23.9,22.1-28,22.7c6.7,6.2,15.2,3.1,21.4-0.1c24.1-12.3,48-25.1,71.6-38.2
		c5.9-3.3,12.6-7.7,15.6-13.3c13.9-26.2,26.6-53.1,39.7-79.7c0,0,0,0,0,0c4.6-8.1,9.3-16.2,13.9-24.3c5.6-13.8,10.7-27.7,16.8-41.2
		c3.4-7.4,7.8-14.5,12.9-20.9c4.5-5.6,11-7.9,18.3-4.4C825.1,352.5,822.4,349.4,819,348z M709,418.6c-0.2,0.9-0.6,1.5-1.2,2
		C708.3,420.2,708.7,419.5,709,418.6z M706.1,427.3c1.1,0,2.1-0.2,3-0.5C708.2,427.1,707.2,427.3,706.1,427.3z M711.5,425.6
		c0.7-0.5,1.2-1.2,1.7-1.9C712.7,424.5,712.2,425.1,711.5,425.6z"/>
	<linearGradient id="SVGID_6_" gradientUnits="userSpaceOnUse" x1="554.2178" y1="663.6584" x2="554.2178" y2="273.1843">
		<stop  offset="0" style="stop-color:#4A3B86"/>
		<stop  offset="0.5" style="stop-color:#5C489A"/>
		<stop  offset="1" style="stop-color:#7159B1"/>
	</linearGradient>
	<path class="st12" d="M672.7,292.9c-14.4-5.6-29.2-10.1-43.2-16.3c-15.9-7-28.8-2.7-40.2,8.5c-16.9,16.6-22.6,41-31.7,61.7
		c0,0,0,0,0,0l-5.7,13.4c0,0-15,34.9-21.1,49.2c-10.4,24.3-21,48.6-31.5,72.9c-0.5,1.6-2.2,4.5-2.8,6.1c0,0,0,0,0,0c0,0,0,0,0,0
		c-4.2,10.2-8.2,20.4-12.5,30.5c-7.2,16.9-14.6,33.8-21.8,50.7c-5.8,13.5-11.4,27.2-17.3,40.7c-4.1,9.5-7.4,10.3-19,5.4
		c0.7,4.3,0.9,8.8,2.2,13c3.6,11.5,8.2,22.4,19.9,28.4c8.9,4.6,17.3,7.1,32,6.5c19.4-4.5,35.2-12.7,46-31.9
		c6.3-11.2,6.4-13.9,11.6-25.8c5.4-12.3,15.1-34.3,20.3-46.6c11.2-26.3,22.2-52.7,33.3-79.1c0.6-1.2,1.2-2.3,1.8-3.5
		c0.2-0.8,0.4-1.5,0.6-2.3c0.8-1.9,1.7-3.7,2.5-5.6c1.7-4,3.4-8,5.2-12c0,0,0,0,0,0c0,0,0,0,0,0c2.9-6,12.6-31,14-34.1
		c5.5-12.2,11.2-24.2,16.7-36.3c1.4-3,2.6-6,3.9-9.1c0.1-0.7-0.1-1.4,0.2-2c8.4-20.1,16.6-40.4,25.5-60.3c3.9-8.8,9-17.5,21.1-16.3
		C679.3,296.8,676.2,294.3,672.7,292.9z M505.3,570.5c0.1-0.1,0.1-0.2,0.2-0.3c0,0,0,0,0,0C505.4,570.3,505.4,570.4,505.3,570.5z
		 M509.9,581.8c-0.7-0.3-1.5-0.5-2.4-0.7C508.3,581.3,509.2,581.6,509.9,581.8c0.6-0.3,1.2-0.5,1.8-0.8
		C511.1,581.3,510.5,581.6,509.9,581.8z M522.6,585.2c0,0,0.1-0.1,0.1-0.1C522.7,585.1,522.6,585.1,522.6,585.2
		C522.6,585.2,522.6,585.2,522.6,585.2C522.6,585.2,522.6,585.2,522.6,585.2z M517.4,571.1C517.4,571.1,517.4,571.1,517.4,571.1
		c0,0.1,0,0.2,0,0.3C517.4,571.3,517.5,571.2,517.4,571.1C517.4,571.1,517.4,571.1,517.4,571.1z M517.7,589.6
		c-0.1,0.1-0.2,0.2-0.4,0.3C517.5,589.8,517.6,589.7,517.7,589.6c0.6-0.6,1.3-1.1,1.9-1.7C519,588.4,518.3,589,517.7,589.6z
		 M521.5,595.2c0.5,0,1-0.1,1.4-0.1C522.5,595.2,522,595.2,521.5,595.2z M524.7,581c0.1-0.2,0.2-0.4,0.3-0.6l0,0
		C524.9,580.6,524.8,580.8,524.7,581z M528.3,585.1c-0.2-0.4-0.5-0.7-0.7-1c-0.7-1-1.5-2-2.3-3c0.8,1,1.5,2,2.3,3
		C527.9,584.4,528.1,584.7,528.3,585.1c0,0,0,0.1,0.1,0.2C528.4,585.2,528.4,585.1,528.3,585.1z"/>
</g>
</svg>
